<svg version="1.1" xmlns="http://www.w3.org/2000/svg" xmlns:xlink="http://www.w3.org/1999/xlink" x="0px" y="0px" width="512px" height="512px" viewBox="0 0 512 512" style="enable-background:new 0 0 512 512;" xml:space="preserve">
<g id="马桥镇_1_" style="opacity:0.6;enable-background:new;">
	<g id="马桥镇">
		<g>
      <path name="马桥镇" d="M67 100L67 103L67 106L66 110L64 119L62 129L62 139L60 149L58 150L56 155L60 160L63 166L75 169L82 174L87 171L93 172L95 176L99 178L99 182L99 186L97 194L99 195L96 198L94 213L95 214L95 219L99 223L98 229L100 233L116 235L122 238L122 241L145 240L148 240L149 236L155 236L157 228L165 228L167 219L170 217L170 213L172 213L177 221L191 222L193 219L196 219L197 222L208 219L211 218L216 217L215 214L213 212L214 207L211 204L208 194L201 191L197 185L199 174L203 172L205 166L207 165L206 146L209 143L209 135L210 132L208 131L209 124L207 120L207 115L203 113L202 108L203 98L206 98L206 88L204 86L205 81L197 80L194 80L192 78C190 79 180 77 180 77L176 77L170 81L161 79L159 81L143 84L142 87L139 87L138 91L126 92L125 94L102 95L101 96L95 98L97 102C97 102 96 104 97 104L83 105L67 100Z"/>
   </g>
	</g>
</g>
<g id="荆家镇_1_" style="opacity:0.6;enable-background:new;">
	<g id="荆家镇">
		<g>
      <path name="荆家镇" d="M205 81L202 79L208 78L246 71L247 68L255 70L262 67L263 61L265 61L269 58L275 55L276 56L282 57L284 59L291 58L295 57L295 56L298 55L304 53L304 50L313 48L313 46L327 44L327 42L331 41L334 43L337 42C338 43 341 46 341 46L344 47L350 55L354 57L357 72L357 74L345 80L338 88L336 98L330 109L333 114L332 140L325 142L322 147L314 147L312 141L309 141L302 139L297 135L285 134L282 139L278 141L278 146L269 145L267 143L260 143L260 151L255 154L260 156L261 160L259 162L256 164L251 164L251 167L245 169L244 170L239 169L237 170L234 170L232 175L229 175L228 182L226 183L225 185L219 188L215 186L213 183L211 182L207 182L204 181L197 181L199 175L203 172L205 166L207 165L206 146L209 143L209 136L210 132L208 131L209 124L207 121L207 116L207 115L203 113L202 109L203 98L206 98L206 88L204 86L205 81Z" />
   </g>
	</g>
</g>
<g id="新城镇_1_" style="opacity:0.6;enable-background:new;">
	<g id="新城镇">
		<g>
<path name="新城镇" d="M149 240L154 251L155 271L160 277L159 287L177 305L185 303L187 312L188 328L189 345L195 345L194 338L200 328L205 339L207 345L213 341L226 338L226 335L234 337L236 314L247 312L256 304L268 304L273 289L297 291L305 278L289 260L284 253L265 251L261 254L242 253L235 249L225 256L216 257L213 250L212 224L216 222L216 218L210 218L204 220L202 221L198 222L196 219L194 219L192 221L177 221L172 213C171 213 170 217 170 217L167 219L165 227L157 228L155 235L149 236L149 240Z" />
   </g>
	</g>
</g>
<g id="果里镇_1_" style="opacity:0.6;enable-background:new;">
	<g id="果里镇">
		<g>
<path name="果里镇" d="M223 342L223 350L222 359L219 359L218 364L213 367L208 368L209 373L204 373L197 374L195 387L199 390L202 402L204 407L210 409L215 407L218 415L217 419L226 421L231 429L235 432L241 438L244 439L252 427L254 425L252 413L250 413L256 410L263 406L267 403L269 391L265 387L265 378L269 372L272 377L277 376L283 371L285 360L291 362L305 366L308 364L309 352L311 350L317 349L322 354L323 357L330 358L336 358L338 355L344 356L347 361L352 361L353 365L361 369L361 381L364 384L362 393L379 398L378 400L390 412L396 412L396 416L401 417L413 401L430 402L434 399L440 400L455 391L456 388L460 388L462 386L465 389L472 389L482 392L483 390L485 394L487 395L501 395L505 396L507 392L508 387L509 384L512 384L512 379L512 375L509 373L505 372L502 375L497 375L494 375L491 378L491 381L486 380L485 374L485 369L485 357L496 356L499 356L504 341L506 334L501 327L497 322L489 321L485 320L486 315L468 315L466 318L463 314L453 313L439 311L436 313L428 313L424 313L425 321L425 324L422 325L420 325L418 324L416 322L413 321L414 318L410 314L404 315L403 318L400 319L394 318L392 313L387 312L385 311L381 308L377 309L373 311L371 317L367 317L365 319L363 321L360 321L360 329L350 329L345 326L342 325L343 321L333 322L329 326C329 326 328 330 328 331C328 332 325 333 325 333L322 337L314 338C314 338 313 342 313 343L313 345L308 343L296 341L294 339L291 342L290 348L287 351L287 354L280 351L282 335L274 326L276 320L279 313L283 308L274 305L275 299L270 298L268 304L256 304L248 311L237 313L234 335L234 336L225 335L225 338L223 342Z"/>
    </g>
	</g>
</g>
<g id="田庄镇_1_" style="opacity:0.6;enable-background:new;">
	<g id="田庄镇">
		<g>
<path name="田庄镇" d="M285 250L304 239L312 232L320 233L322 221L323 228L328 229L332 228L327 225L328 213L332 208L335 204L337 193L339 177L342 172L341 166L341 160L339 159L341 143L336 140L333 137L331 140L325 141L323 147L315 147L313 141L309 141L301 137L285 134L281 140L278 140L277 145L268 144L265 142L260 142L260 151L256 152L260 156L261 160L257 163L252 163L251 167L243 170L234 170L232 175L229 175L228 181L225 184L220 187L214 185L212 182L206 181L199 180C198 181 197 185 197 185L199 188L201 191L208 194L209 200L212 204L214 207L213 212L215 216L216 222L212 224L212 249L216 257L227 256L235 249L241 253L261 254L266 251L284 253L285 250Z" />
    </g>
	</g>
</g>
<g id="唐山镇_1_" style="opacity:0.6;enable-background:new;">
	<g id="唐山镇">
		<g>
<path name="唐山镇" d="M342 141L350 146L352 143L359 147L363 145L365 142L368 143L369 151L374 158L381 158L386 158L387 150L385 144L387 142L389 138L393 142L397 153L409 155L415 153L422 156L421 163L424 168L427 172L425 174L431 174L430 181L427 191L421 190L421 199L415 205L408 204L400 210L397 218L391 234L390 246L393 252L393 258L390 258L389 254L387 258L382 260L383 265L380 271L371 271L370 289L381 291L382 303L379 307L375 310L372 319L368 317L364 320L360 321L360 329L350 328L343 325L342 320L337 321L330 324L328 332L324 334L323 337L314 338L313 345L294 339L291 342L289 348L287 350L287 353L287 354L280 350L282 335L274 326L279 313L283 308L273 305L275 299L270 298L273 289L297 291L305 278L284 253L284 250L305 239L312 232L320 233L322 220L323 228L329 229L332 228L327 225L328 214L335 204L339 177L342 172L341 160L339 159L341 143L342 141Z" />
    </g>
	</g>
</g>
<g id="起凤镇_1_" style="opacity:0.6;enable-background:new;">
	<g id="起凤镇">
		<g>
<path name="起凤镇" d="M360 70L363 73L371 70L375 64L378 67L393 58L403 59L425 54L428 47L431 44L433 47L434 50L436 50L437 53L442 53L444 57L455 60L455 64L453 67L452 69L459 81L456 89L460 92L460 97L461 101L462 103L468 104L472 103L479 103L483 102L491 104L489 114L486 113L482 121L482 133L466 136L466 152L462 161L459 169L446 172L447 177L431 179L431 175L425 173L426 171L421 162L422 156L415 153L410 155L397 153L393 142L389 138L387 143L385 144L387 151L386 158L374 158L369 151L368 143L365 142L363 145L359 147L352 143L351 146L342 141L341 142L332 137L333 114L330 110L336 98L338 89L345 80L357 75L357 70C357 70 360 71 360 70Z" />
    </g>
	</g>
</g>
<g id="索镇_1_" style="opacity:0.6;enable-background:new;">
	<g id="索镇">
		<g>
<path name="索镇" d="M393 311L393 304L410 304L414 304L418 295L415 292L419 291C419 291 419 288 420 288L426 288L426 282L430 280L427 275L429 271L427 264L425 264L428 261L419 260L413 259L396 259L401 257L398 255L399 254L393 253L390 246L391 233L400 210L408 204L415 205L421 199L421 190L427 191L430 179L447 177L446 172L459 169L461 173L462 181L462 184L464 183L465 187L464 199L468 200L468 201L473 202L471 207L473 207L474 209L483 210L484 218L482 220L482 230L491 229L493 229L497 231L495 240L503 241L506 239C506 240 513 241 513 241C513 241 519 241 518 241C517 241 522 244 522 244L526 246L525 254C525 254 524 259 524 260L529 261L531 265L528 270L526 279L524 279L521 283L518 296L518 298L520 299L520 302L516 303L517 306L514 308L514 311L517 312L517 316L518 324L519 326L516 329L514 329L510 329L507 330L507 333L505 334L498 322L486 320L486 315L468 315L466 318L463 314L439 311L437 313L424 313L425 323L423 325L419 325L414 321L413 318L410 314L404 315L402 319L394 318C394 318 393 310 393 311Z" />
    </g>
	</g>
</g>
<g id="城区_1_" style="opacity:0.6;enable-background:new;">
	<g id="城区">
		<g>
<path name="城区" d="M397 259L404 259L412 259L418 260L428 261L426 264L428 266L429 271L427 274L430 280L426 282L426 287L421 288L419 291L415 291L418 295L414 304L393 304L393 312L385 312L379 308L382 304L381 291L370 289L371 271L380 271L383 265L382 260L387 258L389 254L390 258L393 258L393 253L399 254L398 255L401 257L397 259Z" />
   </g>
	</g>
</g>
</svg>