<svg version="1.1" xmlns="http://www.w3.org/2000/svg" xmlns:xlink="http://www.w3.org/1999/xlink" x="0px" y="0px" width="512px" height="512px" viewBox="0 0 512 512" style="enable-background:new 0 0 512 512;" xml:space="preserve">

<g id="崇安区_1_" style="opacity:0.6;enable-background:new;">
	<g id="崇安区">
		<g>
			<path name="崇安区" d="M392.7,230.6l2.8-1l-0.2-2.9h-4.5h-4.7l-7.6-1.5l-1.5,0.8l-1,1.5l0.3,3.2l-2.3,3l-1.3,2.7
	l-2.2,1.8l-1.5,3.1l-1.7,2.1l1.9,3l4.1,2.1l2.2-2.3l1.8-2l1.2-0.4h-0.1l8.2-0.6l5.1,1.5l0.2-4.2l1.1-4L391,234l-0.9-2.2l0.9-2.2
	L392.7,230.6z"/>
		</g>
	</g>
</g>
<g id="南长区_1_" style="opacity:0.6;enable-background:new;">
	<g id="南长区">
		<g>
			<path name="南长区" d="M378.9,242.5l3.2,3.3l0.6,3.9l2,3.8h3.8l1.9,2h-2.5l1.9,6.3l3.2,3.3h-3.9l-5.6,5.4l-5.6,2.2
	h-3.4v-2.8l3.4-1l-3.4-2.8l-2.9,0.6l-1.2-3.9h-4.4l-1.9-7.4l2.5-5.2l-4.4-3.9l-1.3-5l7,0.9l1.9,2.9l4.1,2.2l2.3-2.3l1.7-2
	L378.9,242.5z"/>
		</g>
	</g>
</g>
<g id="北塘区_1_" style="opacity:0.6;enable-background:new;">
	<g id="北塘区">
		<g>
			<path name="北塘区" d="M378.5,224.8l-2.1-2l-5.6-2.5l-3.4-1.3h-5l-1.9-1.3h-5.9l-0.3,5.4l-5.3-3.5l-1.9-1.1l-3.1,1.9
	l-1.2,3.5l0.3,4.1l1.5,4.9l-1.7,2.7l3.9,3.9l4.3,3.3l4.4-3.3l4.4,2.8h0.2l6.8,0.8l1.8-2.1l1.4-3.1l2.3-1.8l1.3-2.7l2.2-3L376,227
	l1-1.5L378.5,224.8z"/>
		</g>
	</g>
</g>
<g id="锡山区_1_" style="opacity:0.6;enable-background:new;">
	<g id="锡山区">
		<g>
			<path name="锡山区" d="M391.8,244.8l6.3,3.2l6.3-3.8l3.8-1.1l4.4,1.7l3.2-1.7v-3.3h2.4h5.1l13.8,3.3l4.4,3.9l3.8,1
	l6.3-0.6l5,3.3l6.3,3.9h4.4v5.5l5.1,4.9l6.3,1.7l-3.2,5.5l-1.9,4.9l3.8,1.1l3.8,5l3.8,3.3l5.5-1.1l0.4-2.5h-4.3l4.3-7.7l13.9-8.7h5
	v4.4l5.1-1.7v-13.5l-3.9-12.8l-3.1-3.9h-8.8l-3.1,4.4l-7-1.7l-3.1-2.8l-0.7-10.4h5.1h6.3l2.4-3.9h3.2h8.2l1.2-3.9l-1.9-6l-1.9-6.1
	l-1.9-3.3l-12.6-3.3l2.5-4.9l0.7-7.2h3.8l7.5-4.9l7-6.1l-6.3-2.8l-3.2-3.8h-0.4l-5.4,0.2l-3.9,1.1l-5.2-2.8l-5.7,2.8l-2.5-2.2
	l-4.5-1.2l-5.2-3.3l-4.4,5.6l-0.7,2.2l-5.2,7.7l-3.9-6.6l-7.1,2.2l-3.2-3.3l-4.4,5.1l-7.7-0.6l-10.3,3.2h-9.9l-10.1,5.2l2.3,0.7v4.9
	l5,1.3v2.2l-2.5,1.5l-2.4,2.4l-3.1,2.5l-1.5,2.1l-0.3,2.8l-2.2-1.4l-0.7-1.3l-2.8,1.9h-4.6l-0.3,2.8l2.2,2.4l-1.2,1.3l-5.3,0.9
	l-2.5-2.2l-7.4,2.7l1.2,2.8l-1.5,2.2l-1,3l2.2,2l7.5,1.4h4.9h4.4l0.3,3l-2.9,0.9l-1.7-0.9l-0.8,2.2l0.8,2.1l1.7,2.5l-1.1,3.9
	L391.8,244.8z"/>
		</g>
	</g>
</g>
<g id="惠山区_1_" style="opacity:0.6;enable-background:new;">
	<g id="惠山区">
		<g>
			<path name="惠山区" d="M343.3,235.8h-3.1h-11.4l2.5,7.6l-7.5,2.8l-1.2,2.8l-2.5,2.8l-3.1-3.3l-2.5,3.3l-5.1,2.7h-3.1
	l1.9-4.3l-3.1-3.3l-3.1-0.6l-2.5-3.9l-5.6-2.8l-8.2,3.3l-5.1,4.4h1.9v3.9l-5.1,3.2h-3.8l-3.4,1.1l0,0h-6.3l-10.2-2l4.7-4.9l-4.1-2.2
	L254,243l3.4-3.3l3.3-2.7v-3.9l3.8-3.9l5.6-3.9l5.1-3.9l5.1-2.8l1.9-5.5l7-5.5l1.9-4.4l-3.8-0.6v-6.1l1.2-4.4l6.3,2.8l4.4-0.6v-4.4
	l-3.1-2.8l3.1-2.8l1.9-4.4l2.5-5l-1.2-6.6c0,0-0.7-6.6,0-9.8c0.7-3.3,3.8-3.9,3.8-3.9l3.8,1.1l4.4,1.1l1.2,3.9l9.5-1l1.4,9.4
	l5.2,2.5h8.4h5.7h4.5l1.9,2.4h5.2h3.2l2.5,7.7h6.4l5.7,3l6.4-3l9.6,5.2l10.3,4.5l3.9-4.5l2.3,0.7v4.9l5,1.3v2.2l-2.5,1.7l-2.5,2.4
	l-3.1,2.4l-1.5,2.1l-0.3,2.8l-2.2-1.3l-0.7-1.4l-2.8,2h-4.6l-0.3,2.8l2.2,2.4l-1.2,1.3l-5.3,0.8l-2.4-2.2l-7.5,2.8l1.2,2.8l-1.5,2.2
	l-0.9,3l-5.6-2.4l-3.4-1.3h-5l-1.9-1.3h-5.9l-0.3,5.4l-5.3-3.5l-1.9-1.1l-3.1,1.9l-1.2,3.5l0.3,4.1l1.5,4.9L343.3,235.8z"/>
		</g>
	</g>
</g>
<g id="滨湖区_1_" style="opacity:0.6;enable-background:new;">
	<g id="滨湖区">
		<g>
			<path name="滨湖区" d="M396,297.9c0.1-0.3,0.4-0.3,0.8-0.6c0.4-0.2,0.3-0.4,0.4-0.8c0.1-0.4,0.1-0.8,0.1-1.2
	s0.3-0.8,0.3-1.3c0-0.9,0.1-1.9-0.1-2.8c-0.1-0.3-0.2-0.8-0.2-1.1c0-0.4-0.1-0.4-0.3-0.9c-0.3-0.4-0.1-0.9-0.2-1.3
	c-0.1-0.2-0.1-0.4-0.1-0.7c0-0.3,0-0.3-0.2-0.7c-0.2-0.6-0.3-1.2-0.4-1.8c-0.1-0.6-0.3-1-0.3-1.7c0-1,0-1.9-0.3-2.8
	c-0.2-0.8-0.6-1.7-0.6-2.5c0-0.4,0-0.9,0-1.3c0-0.1,0.1-0.4,0.2-0.7c0.1-0.2,0.3-0.3,0.4-0.6c0.2-0.3,0.1-0.4,0.6-0.8
	c0.2-0.2,0.2-0.2,0.4-0.3c0.4-0.2,0.8-0.6,1.1-0.9c0.3-0.2,0.7-0.2,1-0.4c0.1-0.1,0.6-0.3,0.7-0.6c0.1-0.4-0.4-0.9-0.8-1.1
	c-0.2-0.2-0.3-0.2-0.6-0.3c-0.2-0.1-0.2-0.2-0.3-0.3c-0.2-0.2-0.3-0.1-0.6-0.2s-0.6-0.3-0.8-0.6c-0.2-0.2-0.6-0.6-0.8-0.8
	c-0.2-0.1-0.3-0.3-0.6-0.6c-0.2-0.2-0.4-0.6-0.7-0.8c-0.3-0.3-0.4-0.8-0.7-1.3c-0.2-0.6-0.2-0.6-0.7-0.7c-0.4-0.2-0.7-0.4-0.9-0.7
	h-3.2l-5.6,5.5l-5.6,2.2h-3.4v-2.8l3.4-1.1l-3.4-2.8l-2.9,0.6l-1.2-3.9h-4.4l-1.9-7.4l2.5-5.2l-4.4-3.9l-1.2-5l-4.4-2.8l-4.4,3.3
	l-4.4-3.3l-3.8-3.9h-3.1h-11.3l2.5,7.6l-7.5,2.8l-1.2,2.8l-2.5,2.8l-3.1-3.3l-2.5,3.3l-5.1,2.7h-3.1l1.9-4.3l-3.1-3.3l-3.1-0.6
	l-2.5-3.9l-5.6-2.8l-8.2,3.3l-5.1,4.4h1.9v3.9l-5.1,3.2h-3.8l-3.9,1.2l5.1,4.1v7.1l2.5,7.2h4.4l0.7-2.8l2.5,5l3.1,1.7l0.7,3.9
	l-3.8,3.9l-4.4,5l-1.4,8.2l-0.4,2.2c0,0-1.4,2.7-2.8,2.7c-1.4,0-8.5,1.5-8.5,1.5l2.1,5.9c0,0-1.8,3.1-4.3,3.8
	c-2.5,0.7-1.4,3.4-2.9,4.1c-1.4,0.7,0.7,3.4-3.2,4.1c-3.9,0.7,1.9,2.8,1.4,5s-2.9,8.1-1.9,10.6c1.1,2.5,7.5,6.5,7.5,6.5
	s-1.4-12.1,5-14.6c6.4-2.5,7.2-7.7,9.6-7.2c2.5,0.7,5.3,4.1,8.2,4.1c2.9,0,5,1.2,5.3,0c0.3-1.2-2.5-13-2.9-14.6
	c-0.3-1.5,2.1-3.4,2.1-3.4l-1.1-3.8l-0.3-3.4l2.5-6.8l0.3-5.6l-3.2-7.5c0,0-2.1-2.2-0.3-4.1c1.8-1.9,5-2.4,6.4-2.4h4
	c0,0,4-5,4.3-7.5c0.3-2.4,11.4-9.6,11.4-9.6s0.3,6.2,2.9,6.8c2.5,0.7,4.6,1.5,4.6,1.5l2.1-2.4l1.8-0.7l2.5-0.9l3,0.4l1-4.7l1.8,1.2
	l-1.7,3l2.1,1.9l5.3,1.7l0.7,3.4l2.9,2.8l3.5-0.7l9.3-1l4.2-2.4l2.1,1.5l-9.6,4.6l-2.5,2.8l-0.7,4l0.2,4.3l3,2l1.8,1.5l-4.3-0.9v2.8
	h-0.9l-2-11.2l-2.1-3.4l-4-3.1l-5-5.3l-3.5-1.9l-4.3-0.3l-0.3,2.5l6.7,5.7l1.5,8.3l-1.1,6.2l-1.4,2.2l-0.7,5l-3.2,4.1l-1.1,2.2
	l-3.2,3.4l-1.1,2.5l3.2,2.2v2.4l2.5,1.5l-0.7,4.1l1.4,2.8l-1.8,3.8v1.5l2.1,0.9l1.1,1.5h3.5l3.5-2.4l2.9-5l7.2-1.5h8.2l13.9-9.6
	l10.1-5.2l1.8,0.8l9.2-6.3C395.9,298.5,395.9,298.2,396,297.9z"/>
		</g>
	</g>
</g>
<g id="江阴市_1_" style="opacity:0.6;enable-background:new;">
	<g id="江阴市">
		<g>
			<path name="江阴市" d="M402.9,57.5l1.2,2.5l0.7,2.8h3.8l3.8,6.1l-3.1,5.5l-3.8,5h6.3l15.1,3.9l13.8,7.1v-2.8h3.1
	l5.6,2.8l0.7,6.1h6.3l9.4,12.6l1.2,3.3l1.9-3.3l4.4,3.9l1.9,3.3h3.1l0.7,2.8v6.1l-5.1,5l5.6,5l8.2,2.8l5.6-2.8h5.6l4.4,4.4l1.9,9.8
	l3.1,3.3l1.9,7.2l-7,5l1.9,8.2l-5.4,0.2l-3.9,1.1l-5.2-2.8l-5.7,2.8l-2.5-2.2l-4.5-1.1l-5.2-3.3l-4.5,5.6l-0.7,2.2l-5.2,7.7
	l-3.9-6.6l-7.1,2.2l-3.2-3.3l-4.5,5.1l-7.7-0.6l-10.3,3.2h-9.9l-9.9,5.2l-3.9,4.5l-10.3-4.5l-9.6-5.2l-6.4,3l-5.7-3h-6.4l-2.5-7.7
	h-3.2h-5.2l-1.9-2.4h-4.5h-5.7h-8.2l-5.2-2.5l-1.4-9.5l-1.2-7.1l-1.9-4.4l-3.1-1.7l-1.2-4.4l-7-9.3v-2.8v-4.4l-3.1-6.1l3.8-8.2
	l5.6-7.1l-3.1-3.3l-13.1-2.2l-2.5,6.6l-4.4,2.8l-2.5-3.9l-4.4,1.1l-7,3.3l-10.7,0.6l-8.8,9.3l-8.2,3.9l-6.3,0.6l-4.4-2.8l-3.8,4.4
	l-4.4-3.3l-8.8-10.9l1.2-2.8l5.1-3.9l5.1-3.3l0.7-7.1l-5.1-1.1l-0.7-7.1l1.9-4.4l5.6-5.5c0,0-5.1-3.9-7-6.6c-0.8-1.2,0.3-4.9,2-8.6
	l21.1,1.4c0,0,8.9,4.9,14.1,5c5.2,0.1,15.5,1.1,21.2,4.5c5.7,3.4,3.8,6.7,9.6,7.8c5.7,1.1,24.5-0.6,33.5-3.1
	c8.9-2.5,21.2-1.5,28.3-7.1s4.5-6.6,13.5-7.2s18-2.2,18-2.2L402.9,57.5z"/>
		</g>
	</g>
</g>
<g id="宜兴市_1_" style="opacity:0.6;enable-background:new;">
	<g id="宜兴市">
		<g>
			<path name="宜兴市" d="M250.6,286.6l-8.8-5l-13.8-3.3l-4.4-1.1l-3.1-5l-2.5-6.1l-12.6-8.2l-3.8-3l-2.5-2l-3.1,2h-2.5
	h-5.1h-11.3h-7h-7l-8.2,8l-4.4,2.2l-10.7-3.9l-30.8-11.5l-6.3-2.8l-8.8,6l-6.3-8.7l-2.5-10.4l-5.1-4.4l-7-3.9h-4.4l-9.4,5.5l1.2,7.1
	l-5.1,9.3l-1.9,2.8h-5.2l-3.1,2.7l-7,10.5l-3.1,9.3l-3.1,4.4l-6.3-2.2l-0.7,7.6l4.4,3.9l-3.1,4.4l-1.9,3.3l0.7,2.8l10.7-1.1l0.7,3.3
	l-3.8,6.1l-3.1,4.4l-3.1,1.7l-5.1-0.6h-3.1v9.3l-7.5,3.9l1.9,6.6l-2.5,6.1c0,0-3.1,8.2-2.5,14.2c0.7,6.1,1.9,8.7,1.9,8.7
	s-7.5,3.9-7,9.8l7,9.8v6.6v5.5l-3.4,6.6v6.1c0,0,10.4,6.1,10.4,8.7c0,2.8,3.1,23,0,25.7c-3.1,2.8-6.8,0-6.2,5l0.6,5
	c0,0,7.5-2.8,11.9,9.3s5.1,7.1,5.1,7.1l5.6,1h5.9H42c0,0-0.7-0.4,0-4.3c0.7-3.9,0.7-3.9,3.1-3.9h8.2l3.8-7.2l4.4-5.5l9.4-5.5
	l8.8,3.3l7,2.8l5.1-7.2l18.2-0.6l13.8-5l5.1,5.5v6.1l7-2.2l5.1-3.3l6.3-2.8l7,2.2h7l8.2,2.8l18.2-3.3c0,0-3.1-8,2.9-16.1
	c5.9-8.2-3.8-2.4-8.7-10.1c-5.3-8.2,20-43.1,25.3-52.3s38.3-44.2,38.3-44.2s-6.5-2.1-10.1-2.7c-2-0.3,0.9-1.2,1.8-3.5
	c0.7-1.8-0.8-4.7,0-7.3C238.4,295.9,250.6,286.6,250.6,286.6"/>
		</g>
	</g>
</g>
<g id="新区_1_" style="opacity:0.6;enable-background:new;">
	<g id="新区">
		<g>
			<path name="新区" d="M490.5,284.4l-5.5,1.1l-3.8-3.3l-3.8-5l-3.8-1.1l1.9-5l3.1-5.5l-6.3-1.7l-5.1-5v-5.5h-4.4
	l-6.3-3.8l-5.1-3.3l-6.3,0.6l-3.8-1.1l-4.4-3.9l-13.8-3.3h-5.1h-2.5v3.3l-3.1,1.7l-4.4-1.7l-3.8,1.1l-6.3,3.9l-4.4-0.6l-1.9-2.8
	l-5.1-1.7l-8.2,0.6l3.1,3.3l0.7,3.9l1.9,3.8h3.8l1.9,2h-2.5l1.9,6.3l3.1,3.3h-0.7c0.2,0.3,0.4,0.6,0.9,0.7c0.4,0.2,0.6,0.2,0.7,0.7
	c0.2,0.6,0.2,0.9,0.7,1.3c0.2,0.2,0.4,0.6,0.7,0.8s0.3,0.4,0.6,0.6c0.2,0.2,0.4,0.6,0.8,0.8c0.2,0.1,0.6,0.3,0.8,0.6
	c0.2,0.1,0.3,0,0.6,0.2c0.2,0.1,0.2,0.2,0.3,0.3c0.2,0.1,0.3,0.1,0.6,0.3s0.8,0.7,0.8,1.1c-0.1,0.2-0.4,0.4-0.7,0.6
	c-0.3,0.2-0.7,0.2-1,0.4c-0.4,0.2-0.8,0.6-1.1,0.9c-0.2,0.1-0.2,0.1-0.4,0.3c-0.3,0.3-0.3,0.4-0.6,0.8c-0.1,0.2-0.3,0.3-0.4,0.6
	c-0.1,0.1-0.1,0.4-0.2,0.7c-0.1,0.4,0,0.9,0,1.3c0,0.9,0.3,1.8,0.6,2.5c0.3,0.9,0.3,1.8,0.3,2.8c0,0.6,0.2,1,0.3,1.7
	c0.1,0.7,0.2,1.2,0.4,1.8c0.1,0.3,0.1,0.3,0.2,0.7c0,0.3,0.1,0.4,0.1,0.7c0.1,0.4-0.1,0.9,0.2,1.3c0.2,0.3,0.3,0.3,0.3,0.9
	c0,0.3,0.1,0.8,0.2,1.1c0.2,0.9,0.2,1.9,0.1,2.8c0,0.6-0.3,0.9-0.3,1.3s0,0.8-0.1,1.2c-0.1,0.4,0,0.6-0.4,0.8
	c-0.3,0.2-0.7,0.2-0.8,0.6c-0.1,0.2-0.1,0.4,0,0.7l2.2-1.5l7.3,3l2.7-3.6l9.6,4.3l5,4.3l3.6-1.9l5.6,2.8l5.1-2.8h5.1h17.4l5.1-3.9h7
	l3.8-3.9l15.7-3.3v-7.6H490.5z"/>
		</g>
	</g>
</g>
</svg>
